<?xml version="1.0" encoding="utf-8"?>
<!-- Generator: Adobe Illustrator 16.0.3, SVG Export Plug-In . SVG Version: 6.00 Build 0)  -->
<!DOCTYPE svg PUBLIC "-//W3C//DTD SVG 1.1//EN" "http://www.w3.org/Graphics/SVG/1.1/DTD/svg11.dtd">
<svg version="1.1" id="Ebene_1" xmlns="http://www.w3.org/2000/svg" xmlns:xlink="http://www.w3.org/1999/xlink" x="0px" y="0px"
	 width="204.402px" height="204.402px" viewBox="0 0 204.402 204.402" enable-background="new 0 0 204.402 204.402"
	 xml:space="preserve">
<g id="Hintergrund">
</g>
<g id="Hilfslinien_anzeigen">
</g>
<g>
	<rect x="0" y="0" fill="#00519E" width="204.402" height="204.402"/>
	<path fill="#FFFFFF" d="M62.146,93.471c0,0,0.129-3.19,2.979-2.846c0.883,0.107,1.185,0.89,1.513,1.941
		c1.188,2.09,0.742,4.165,0.742,4.165s-0.233,2.212-2.396,3.603c0,0-0.624,0.623,0.335,2.063c0.959,1.439,1.536,2.645,1.296,4.085
		c-0.241,1.438-0.959,1.389-2.063,1.482c-1.104,0.1-1.007,2.689-1.007,2.689h0.861c0,0,1.008-1.295,2.208-1.295
		c1.199,0,0.91,2.787,0.91,2.787v5.035c0.122,0.984-0.863,1.396-0.863,2.114c0,0.722,0.391,4.756-1.87,4.756
		s-3.446-1.489-3.481-3.651c-0.023-1.39,0.069-3.122,0.069-3.122s0.146-0.911-0.432-0.911c-0.365,0-0.512-0.412-0.72-1.006
		c-0.118-0.343-0.395-0.699-0.395-1.189l0.011-2.457c0,0-0.525-0.438-0.525-1.686s0.766-0.912,0.67-1.773
		c-0.096-0.863,0-4.611,0-4.611s0.023-1.354,0.815-1.533c0.038-0.938,0.648-1.488,1.535-1.488c0,0,0.287-0.383,0.046-0.958
		c-0.237-0.577-0.335,0.09-0.335-1.494c0-1.582-0.134-1.61-0.525-2.445C61.138,94.91,62.146,93.471,62.146,93.471z M103.981,92.331
		c1.592-0.74,6.04-3.293,7.188-2.409c0.584,0.449,1.389,1.692,1.563,3.18c0.258,2.166-0.838,4.55-3.743,5.463
		c0,0-0.84,1.331-2.418,1.854c-0.861,0.286-2.219,3.095-2.219,3.095s-0.965,1.39-1.179,3.521c-0.071,0.724,0.06,1.518,0.159,2.274
		c0.474,1.263,1.173,2.771,2.329,3.277c1.656,0.728,2.815-0.157,4.026-0.963c1.204-0.798,2.526-1.685,3.466-1.719
		c1.886-0.064,4.396,0.009,4.463-2.347c0.064-2.357-0.541-3.778,0.859-5.668c0,0,0.104-3.782,0.122-3.863
		c0.576-0.62,1.347-0.815,1.347-2.125c0-1.312-0.528-2.447-2.264-2.785c-0.431-0.085-1.481-1.452-1.553-1.672
		c-0.262-0.91-0.279-1.85-0.279-1.85s0.013-1.375,3.142-0.983c3.13,0.394,3.326,3.143,3.326,3.143s0.655,1.95,0.13,3.261
		c-0.522,1.309-0.653,1.245-0.457,2.226c0.195,0.982,0.589,2.215,0.261,3.129c-0.327,0.918-0.72,1.179-0.654,1.899
		c0.065,0.72,1.179,1.36,0.917,3.459c-0.263,2.093-2.227,2.958-2.097,5.301c0.131,2.345-0.901,3.72-2.54,4.243
		c-1.637,0.521-5.303,6.664-9.282,6.925c-3.981,0.263-5.486,0.577-10.58-3.666c-5.094-4.242-4.133-6.399-3.489-7.435
		c0.641-1.034,2.767-4.199,1.856-6.159c-0.917-1.976-0.498-2.736,0.322-3.583c0.867-0.899,2.553-1.771,2.88-3.917
		c0.193-1.254,1.387-1.608,2.082-3.337C102.195,92.788,102.948,92.678,103.981,92.331z M29.471,149.56c0,0,1.173-0.985,1.36-1.691
		c0.187-0.703,2.02-0.796,2.112,0.237c0.095,1.031,0.444,3.325,2.276,4.619c1.315,0.93,0.445,4.347,0.024,4.396
		c-0.423,0.046-1.502,0.654-1.268,3.753c0.234,3.1-1.126,4.977-1.126,4.977s-0.517,1.36,0.28,1.643
		c0.8,0.283,1.831,1.129,1.408,2.113c-0.421,0.984-1.877,2.298-1.501,3.988c0.375,1.689,0.609,1.598,2.158,1.598
		s3.618-0.093,3.57,2.206c-0.034,1.528-4.273,6.619-7.7,7.229c0,0-0.867-0.527-1.759-0.796c-0.467-0.139-0.985,0.124-1.293-0.143
		c-1.802-1.562-1.735-2.396-1.735-4.836c0-1.313,0.165-2.86,0.05-4.106c-0.098-1.07-0.542-1.423-0.696-1.926
		c-0.153-0.496,0.506-1.806,1.679-4.435c1.173-2.63,1.222-3.053,0.28-5.493c-0.938-2.441-0.421-2.02-0.093-4.18
		c0.328-2.157-0.421-3.917,0.423-4.882c1.001-1.145,0.184-2.399,0.652-2.964C29.043,150.305,29.471,149.56,29.471,149.56z
		 M168.282,33.156c0,0-1.422-1.214,0.919-3.127c1.264-1.034,3.104-1.336,5.208,0.367c1.098,0.889,1.005,3.283,0.4,5.275
		c-1.354,1.833-1.539,1.756-1.537,3.174c0.001,1.314-0.012,1.957-0.225,2.517c-0.308,0.811-0.844,1.311-0.747,2.203
		c0.107,1.012,0.131,1.97-0.435,3.063c-0.708,0.6-1.172,1.097-1.329,1.736l-0.043,2.779c0,0-0.919,1.458-0.863,1.995v6.445
		c0,0,0.711,0.974,0.863,1.969c0.229,1.492,0.768,1.478,1.021,1.8c0.319,0.41,0.84,0.921,0.785,2.028
		c-0.045,0.902-0.611,1.528-1.188,2.069c-0.63,0.591-1.298,1.063-1.913,1.085c-2.543,0.104-3.595-1.641-3.667-2.076
		c-0.173-1.034-0.836-0.863-1.134-1.132c-0.295-0.271-0.781-0.971-0.673-2.644c0.107-1.671,0.133-3.178-0.485-3.856
		c-0.856-0.939-0.445-2.808,0.087-3.79c0.376-0.695,0.409-0.87,0.605-2.223c0.307-0.852,1.242-1.656,1.383-2.967
		c0.122-1.138-0.756-1.159-0.701-2.993c0.02-0.665,0.066-1.418,0.181-2.156c0.167-1.087,0.333-1.223,1.219-2.717
		c0.833-1.408,1.674-1.788,2.86-2.435c0,0,0.104-1.394-0.198-3.026c-0.074-1.35-0.104-2.395-0.18-2.771
		C168.418,33.356,168.282,33.156,168.282,33.156z M134.407,25.533c0,0,0.444-1.165,1.51-0.916c1.063,0.248,0.891,0.346,3.021,1.459
		c2.129,1.114,2.5,0.867,2.55,1.857c0.049,0.99-0.743,1.731-1.561,2.128c-0.815,0.396-1.906,0.645-2.179,1.609
		c-0.271,0.966-0.767,1.981-1.757,2.055s-1.139-0.893-1.014-1.708c0.124-0.817,1.163-1.312,0.988-2.698
		c-0.172-1.386-0.099-1.832-0.816-2.303c-0.718-0.47-0.94-0.618-0.915-1.015C134.258,25.608,134.407,25.533,134.407,25.533z
		 M134.951,44.149c0,0,0.915-1.139,2.327-0.323c1.411,0.817,1.238,2.155,0.52,3.095c-0.718,0.94-1.336,2.055-1.164,3.168
		c0.175,1.114,0.422,3.59-0.644,3.788c-1.063,0.197-1.164-2.252-0.94-2.945c0.223-0.693,1.064-0.668,0.891-2.055
		c-0.172-1.386-0.792-0.373-0.915-1.56c-0.124-1.188-0.143-1.127-0.495-1.833C134.158,44.744,134.951,44.149,134.951,44.149z
		 M134.109,60.413c0,0,0.048-1.708,1.56-1.313c1.511,0.396,0.94,1.979,1.386,2.5c0.445,0.52,2.154,2.896,1.088,3.712
		c-1.063,0.818-2.251-0.816-2.227-1.312c0.023-0.496-0.248-1.386-0.816-1.683c-0.569-0.297-1.04-0.743-1.016-1.139L134.109,60.413z
		 M134.134,67.12c0,0-0.321-2.475,1.188-2.252c0,0,0.494,0.249,0.544,1.287c0.051,1.041-0.197,0.892,0.57,1.659
		c0.767,0.768,0.196,1.337,0.618,1.683c0.421,0.349,1.733,1.51,1.657,2.452c-0.072,0.941-0.89,1.46-0.915,2.178
		c-0.024,0.719-0.939,1.114-0.939,2.104c0,0.989,0.147,0.865,0.495,1.484c0.347,0.619,0.521,1.782-0.371,2.426
		c-0.893,0.645-2.029,2.154-1.932,2.674c0.099,0.52-0.297,1.585-0.643,1.611c-0.347,0.022-1.313-0.62-1.264-1.388
		c0.05-0.768,0.967-1.064,0.967-2.427c0-1.361-0.173-3.763,0.297-4.035c0.469-0.271,1.459-1.063,1.559-2.45
		c0.101-1.386,0.348-1.288,0.544-1.609c0.198-0.321,0.298-0.966-0.396-0.94s-1.979-0.222-2.004-1.212
		C134.085,69.375,134.134,67.12,134.134,67.12z M132.326,89.177c0,0,0.249-1.237,0.917-1.063c0.668,0.173,0.867,0.222,1.015,0.421
		c0.149,0.198,0.693,0.893,0.197,1.46c-0.495,0.568-0.643,0.544-1.313,0.223C132.476,89.895,132.326,89.177,132.326,89.177z
		 M131.758,95.095c0,0,0.124-1.857,1.932-2.327c1.808-0.472,2.301,4.405,2.301,4.405s-0.024,1.14-0.718,1.561
		s-0.048-0.67-1.387-0.546c-1.336,0.125,0.446-1.979-0.767-2.153c-1.212-0.173-1.436-0.396-1.436-0.569L131.758,95.095z
		 M131.088,107.817c-0.057-0.963,0.231-1.352,0.795-2.061c0.29-0.628,0.485-1.21,1.112-1.354c0,0,0.666-0.135,1.164,1.224
		c0.143,1.172,0.985,1.255,1.112,2.414c0.373,3.367-0.421,0.174-0.544,3.59c0,0,0.14,0.83-1.163,1.856c0,0,0.074,2.45-0.718,3.367
		c0,0-0.094,0.543,0.417,1.347c0.488,0.775,1.364,3.085,0.695,4.396c-0.667,1.312-0.866,0.47-1.04,2.477
		c-0.172,2.003-0.222,5.567,0.174,6.162c0.396,0.594,0.579,2.187-0.14,2.483c-0.718,0.296-1.395,0.041-1.99-0.728
		c-0.593-0.767-0.916-0.469-0.842-2.251c0.075-1.782,0.05-5.076,0.05-5.076s0.474-1.418-0.17-1.987
		c-0.643-0.569-0.745-0.586-0.795-1.725c-0.024-0.568-0.063-1.88,0.007-3.133c0.072-1.261-0.02-1.769,0.678-2.785
		c0.598-0.874,1.107-1.988,1.505-2.854c0.396-0.865,1.352-1.154,1.425-1.924c0.075-0.766-0.283-1.689-0.915-2.125
		C131.197,108.646,131.088,107.817,131.088,107.817z M130.445,137.474c0,0-0.05-1.46,1.089-1.808
		c1.139-0.346,2.079,0.148,1.832,1.064c-0.248,0.916-0.693,2.152-1.56,2.327c-0.867,0.174-0.693-0.99-1.14-1.164L130.445,137.474z
		 M129.258,147.301c0-0.121-0.024-1.51,0.792-1.385c0.816,0.123,0.966,0.123,1.064,1.361c0.098,1.238-0.272,0.964,0.173,1.559
		c0.446,0.596,0.916,1.907,0.373,2.773c-0.546,0.866-1.363,1.163-1.338,2.426s-0.471,2.724-1.063,2.772
		c-0.595,0.05-0.892-0.545-0.966-1.562c-0.075-1.016-0.373-1.409-0.568-1.684c-0.199-0.271-0.051-1.286,0.668-1.459
		c0.718-0.174,0.866-0.893,0.89-1.264c0.024-0.371,0.075-0.643,0.866-1.113c0.792-0.472-0.322-1.189-0.52-1.561
		C129.43,147.797,129.258,147.301,129.258,147.301z M125.47,160.57c0,0,0.246-1.782,1.313-1.585
		c1.064,0.197,1.312,1.041,1.137,1.883c-0.172,0.842-0.74,2.326-1.535,2.326c-0.792,0-1.188-1.782-1.137-2.029
		C125.296,160.916,125.47,160.57,125.47,160.57z M127.895,174.063c0,0-0.742-1.017-0.048-1.338c0.692-0.321,1.36-0.57,2.202,0.05
		c0.843,0.62,2.798,2.326,1.361,3.07C129.976,176.586,127.895,174.063,127.895,174.063z M57.171,160.249
		c0,0,0.025,0.049-1.063,0.495c-1.089,0.444-1.016,2.353-1.063,3.191c-0.051,0.844-0.941,0.225-1.288,1.661
		c-0.347,1.435,1.608,2.696,1.981,3.192c0.371,0.493,1.696,0.688,3.416,1.335c2.113,0.8,3.404,0.342,5.703-1.214
		c3.606-2.444,3.036-7.426,3.108-9.355c0.075-1.932,0.225-1.905-1.781-2.972c-2.004-1.063-1.25-0.747-2.426-2.028
		c-0.72-0.784-2.639-0.729-3.38-0.012c-0.744,0.72-0.086,2.686-0.557,3.799C59.349,159.456,57.171,160.249,57.171,160.249z
		 M50.455,159.747c0,0-0.143-2.266,1.688-2.737c1.831-0.469,1.946-1.13,2.322-3.007c0.374-1.879,6.412-3.948,8.572-3.948
		c2.94,0,3.895,1.478,5.208,1.523c1.315,0.049,2.676-1.782,4.929-1.408c2.253,0.376,2.147,2.14,1.502,3.006
		c-0.271,0.361-0.282,2.723,0.281,3.1c0.563,0.374,0.093,2.722-0.563,3.379c-0.657,0.655-1.205,4.141-1.971,5.115
		c-0.069,0.09,0.086,3.911,0.086,3.911c-0.542,1.043-1.725,1.407-2.479,2.553c-0.422,0.645-0.093,0.871-0.33,1.378
		c-1.092,2.327-2.33,3.527-4.085,3.473c-2.251-0.071-3.615-0.234-4.271,1.173c-0.657,1.409-1.276,1.815-3.483,1.862
		c-2.208,0.047-4.074,0.202-4.918-1.017c-0.845-1.224-2.583-1.224-2.583-1.224s-0.987-0.231-1.269-1.547
		c-0.28-1.315-0.657-2.061-1.08-2.203c-0.423-0.142-0.466-3.521-0.271-3.83c0.167-0.267,0.514-0.789,0.697-1.5
		c0.226-0.876,0.275-2.024,0.328-3.218c0,0,0.703-0.187,0.75-1.595c0.047-1.409-0.017-1.79,0.548-2.26L50.455,159.747z
		 M105.072,159.086c0,0-0.05,0.272-0.62,1.063c-0.567,0.792-5.025,0.668-5.618,0.595c-0.595-0.075-2.037,0.299-2.352,2.425
		c-0.095,0.645,0.679,2.308,1.171,3.129c0.939,1.163,2.282,2.078,3.434,2.145c1.586,0.093,1.185,0.152,2.296-0.488
		c0.378-0.219,0.938-0.519,1.855-0.891c1.071-0.433,1.646-0.748,2.09-1.394c1.062-1.53,0.56-3.354,1.152-3.755
		c0.842-0.565,1.295-1.666,1.295-1.666s0.571-1.699,0.021-2.735c-0.241-0.454-0.813-0.617-1.556-0.729
		C105.815,156.411,105.072,159.086,105.072,159.086z M97.2,172.353c-0.33-0.575-0.448-0.521-0.544-0.533
		c-0.097-0.009-0.072,0.421-0.054,0.525C97.243,172.458,97.2,172.353,97.2,172.353z M91.668,160.584
		c0.007-0.181-0.045-1.196,0.111-2.154c0.204-1.266,1.098-2.859,1.583-3.379c0.706-0.756,2.205-2.698,3.516-2.772
		c1.535-0.087,3.813-0.445,4.703-1.783c0.893-1.336,0.792-1.979,2.39-2.065c1.813-0.1,0.617,0.917,2.883,0.742
		c2.286-0.176,1.106-1.629,2.352-2.29c0.582-0.309,2.006-0.481,2.772-0.32c1.247,0.262,0.892,0.965,2.277,0.867
		c1.387-0.102,2.19,0.021,2.217,0.728c0.029,0.893-0.137,1.103-0.582,1.251c-0.223,0.075-0.111,2.439-0.111,2.439
		s0.148,1.619-0.619,2.76c-0.146,0.697-0.256,1.476-0.507,2.228l-0.05,6.337c0,0-1.114,1.202-0.891,4.309
		c0.05,0.674-0.568,0.73-0.704,1.317c-0.271,0.813-0.617,1.316-1.179,2.544c-1.377,3.022-4.47,3.6-4.47,3.6
		s-1.698,0.545-2.213,2.033c-0.532,1.533-1.139,1.795-2.375,1.894c-1.24,0.099-2.08,0.099-2.478,0.646
		c-0.396,0.545-0.792,0.246-1.237-0.249c-0.444-0.494-1.286-2.426-3.812-2.326c-1.32,0.051-2.588,0.023-3.032-0.966
		c-0.416-1.14-1.13-2.134-1.313-2.524c-0.161-0.347-0.186-1.706-0.115-2.559c0.038-0.465-0.054-0.949,0.029-1.343
		c0.172-0.828,1.212-1.571,1.791-1.782l0.016-1.968c0,0-0.806-2.977-0.941-4.308C91.63,161.004,91.659,160.692,91.668,160.584z
		 M110.932,44.873c-0.347,0.184-0.319,0.523-0.319,0.655c-0.362,0.13-0.296,0.551-0.31,0.62c0.615-0.216,0.623-0.479,0.61-0.616
		c0.365-0.166,0.322-0.616,0.322-0.729L110.932,44.873z M112.225,27.414c0,0,1.508-2.028,2.694-1.782
		c1.189,0.249,1.693,1.521,1.712,2.624c0.034,1.896-2.624,3.716-1.09,5.942c0.021,0.622,0.507,1.381,0.507,2.146
		c0,0.048-0.218,0.335-0.235,0.834c-0.088,2.232-0.125,8.064-0.146,9.179c-0.019,0.851-2.087,5.655-1.994,6.857
		c0.1,1.288-0.293,1.986-2.179,3.468c-0.509,0.399-2.67,0.917-2.474,2.599c0.198,1.684,1.383,3.629,1.383,3.629s2.036,3.2,0.437,4.3
		c-0.692,0.478-1.036,1.348-1.128,2.456c-0.127,1.037-0.797,2.061-3.464,1.437c0,0-0.727-0.659-1.255-1.237
		c-0.722-0.792-1.698-1.159-1.708-2.726c-0.018-2.792,0.055-8.165,0.055-8.165c-0.063-1.03-1.057-2.179-0.363-3.565
		c0.691-1.386,1.024-2.627,1.345-4.19c0.29-1.419,1.718-2.91,1.718-4c0-0.422-0.043-1.087-0.263-1.722
		c-0.351-1.005-0.74-1.641-0.473-2.689c0.417-1.646,1.16-2.096,2.608-2.065c1.401,0.031,2.848-1.841,2.947-3.327
		c0.098-1.484,0.02-2.761,0-3.337c-0.201-1.108-0.824-1.721-0.219-3.201c0.327-0.799,0.31-1.836,0.31-1.836s0.542-0.857,0.899-1.238
		L112.225,27.414z M175.362,91.65c0,0.77,0.625,1.396,1.396,1.396s1.397-0.628,1.397-1.396c0-0.772-0.625-1.396-1.397-1.396
		C175.987,90.254,175.362,90.878,175.362,91.65z M163.646,88.122c0.469,0.081,0.604,0.087,0.681-0.083
		c0.596-0.238,0.637-0.412,0.628-0.682c-0.011-0.27-0.713-0.124-0.769-0.129c-0.438,0.63-0.601,0.414-0.666,0.606L163.646,88.122z
		 M171.164,85.975c0.575-0.33,0.521-0.448,0.532-0.544c0.009-0.098-0.421-0.072-0.526-0.057
		C171.058,86.016,171.164,85.975,171.164,85.975z M171.098,104.345c0.273,0.268,0.452,0.453,0.49,0.612
		c0.451,0.218,0.408-0.729,0.371-0.848c-0.271-0.439-0.408-0.396-0.681-0.408C171.006,103.689,171.098,104.345,171.098,104.345z
		 M162.206,100.96c0,0-1.063-0.421-1.213-2.275c-0.149-1.857,0-1.685-0.62-2.229c-0.618-0.544-0.926-1.022-1.261-2.104
		c-0.279-0.898-0.694-1.534-0.646-2.401c0.051-0.866,0.084-1.483,0.521-2.301c0.293-0.55-0.176-2.502,0.346-3.43
		c0.431-0.764,2.495-3.178,4.51-3.358c1.943-0.174,1.187-0.744,2.62-0.794c1.438-0.048,2.255-0.517,3.098-0.987
		c0.833-0.464,0.767-0.74,2.672-0.889c1.906-0.148,3.34-0.651,4.38-0.707c0.468-0.025,1.139-0.06,1.51-0.208
		c0.373-0.149,1.653,0.014,1.751,1.029c0.1,1.016,0.285,1.999,0.428,2.509c0.397,1.426,1.288,1.87,1.313,2.465
		c0.025,0.593,0.31,1.75-0.496,2.264c0,0-0.021,2.288-0.369,2.685c-0.244,0.277-0.437,0.674-0.498,1.252
		c-0.147,1.412,0.322,2.525-0.915,2.847c-1.237,0.322-1.759,0.646-1.856,2.253c-0.099,1.608-0.124,2.229-0.544,2.525
		c-0.304,0.213-1.243,2.762-2.278,3.613c-0.861,0.711-2.163,3.555-3.016,4.337c-0.618,0.565-1.028,1.426-1.606,2.021
		c-0.503,0.517-1.22,0.813-1.22,0.813c0.337,0.164,0.552,0.001,0.794,0.105c0.274,0.124,0.12,0.5-0.149,1.041
		c-0.32,0.646-1.437,0.05-1.733,0.693c-0.295,0.643-0.96,1.65-0.023,2.203c0.484,0.283,0.94-0.175,0.965,0.718
		c0.023,0.891,0.817,1.604,1.608,1.58c0.792-0.025,1.441-1.547,0.842-2.025c-0.444-0.354,3.428-0.446,3.491-0.595
		c1.674,0.316,5.26-0.74,5.459-0.418c0.119,0.19,0.713,0.374,1.2,0.271c0.321-0.067,0.462-0.237,0.541-0.406
		c0.198-0.422,2.147-0.822,2.564-0.773c0.421,0.049,1.404-0.033,1.528,1.007c0.124,1.039,0.043,1.517,0.736,2.11
		c0.692,0.593,1.486,1.083,1.239,2.021c-0.247,0.942-1.113,0.942-1.684,0.894c-0.57-0.051-3.96,0.471-4.134,1.214
		c-0.175,0.742-0.891,1.634-1.708,1.56s-1.063-0.619-1.583-0.619c-0.521,0-0.446,0.521-1.685,0.619
		c-0.533,0.042-2.771,0.84-3.911,0.594c-2.334,0.122-4.894-0.105-5.219,0.094c-0.692,0.425-2.973-0.113-2.973-0.113
		s-1.949-0.774-3.616-0.796c-1.956-0.026-3.936-0.719-3.936-0.719s-0.719-0.174-2.13,0.224c-1.41,0.396-1.313-1.437-1.313-1.437
		s-0.189-1.104,1.411-1.264c0.579-0.058,1.469-3.335,2.302-3.313c1.014,0.021,2.948-2.379,2.971-2.727
		c0.025-0.347,2.761-2.521,3.292-3.117c0.204-0.229,1.54-2.853,1.746-3.205c0.229-0.392,0.91-2.369,0.91-2.369
		s-0.014-0.751,0.852-0.775c0.865-0.022,1.489,0.06,1.47-0.532c-0.03-0.846-0.57-4.63,0.248-4.456
		c0.815,0.173,1.85-0.006,1.987-0.321c0.272-0.62-0.205-2.153,0.883-2.624c1.089-0.472,2.501-0.247,2.401-1.781
		c-0.098-1.536-0.453-2.793-0.471-3.567c-0.011-0.431,0.224-2.004-0.842-2.004c-1.064,0-4.159,0.744-4.729,0.843
		c-0.566,0.099-2.187,0.174-2.383,1.287c-0.199,1.114-0.042,1.831-0.042,1.831s0.521,1.534-0.519,2.18
		c-1.041,0.644-0.125,2.995,0.345,3.837c0,0-1.524,1.562-1.583,1.904C164.087,99.624,162.206,100.96,162.206,100.96z
		 M167.086,143.359c0,0-0.397,0.465-0.63,1.096c-0.232,0.628-0.419,0.885-0.698,1.024c-0.279,0.142-0.187,0.956-0.187,1.842
		s-1.909,5.451-2.703,5.963c-0.792,0.515-1.888,4.101-2.469,4.356c-0.583,0.258-1.771,2.262-2.308,2.216
		c-0.537-0.048-0.696,1.259,0.141,1.329c0.836,0.067,0.279-0.373,2.004-0.354c1.725,0.026,1.584,1.003,2.96,0.889
		c1.374-0.116,1.232,0.323,2.117,0.3c0.887-0.022,0.351-0.094,1.516-0.626c1.166-0.533,1.469-2.961,1.538-4.011
		c0.07-1.049,1.492-2.98,1.771-3.189c0.28-0.21,0.883-3.449,0.467-3.848c-0.417-0.396-0.467-4.17-0.442-5.821
		c0.023-1.655,0.35-1.236,0.256-2.399c-0.095-1.164-0.77-0.91-1.283-0.84s-0.396,0.886-0.933,1.145
		C167.668,142.686,167.086,143.359,167.086,143.359z M166.319,172.708c-0.419-0.131-0.476,0.598-0.405,0.604
		c0.283-0.18,0.24-0.623,0.271-0.623L166.319,172.708z M168.647,136.326c-0.025-0.536,0.529-1.457,1.854-1.573
		c0.663-0.058,1.2,0.207,1.743,0.331c0.543,0.123,1.094,0.105,1.526,0.378c0.488,0.308-0.093,2.135-1.166,2.911
		c-0.473,0.344-0.104,2.12,0.598,2.552c1.094,0.676,1.269,1.087,1.873,1.18c0.605,0.093,2.049-0.004,2.119,1.186
		c0.07,1.188-0.371,0.91-0.371,1.445s0.089,0.814,0.557,1.117c0.467,0.305,0.233,2.447,0.233,2.447s-0.297,1.729-1.073,2.227
		c-0.393,0.251-0.509,0.872-0.813,1.734c-0.304,0.86-0.489,0.981-0.652,2.33c-0.163,1.35,0.349,3.122-0.256,3.54
		c-0.607,0.419-0.724,1.911-0.677,2.283c0.047,0.373-0.35,0.98,0.514,1.003c0.861,0.024,1.211-0.302,1.282-0.487
		c0.067-0.188,1.139-0.444,1.512-0.143c0.373,0.304,0.699,0.628,0.675,1.211c-0.022,0.582-0.209,1.001,0.63,0.979
		c0.839-0.023,0.07-1.418,0.373-1.581c0.304-0.163,0.419-0.607,0.979-0.607c0.561,0,2.964-0.183,3.17,0.7
		c0.208,0.884,0.165,5.264-1.071,5.359c-1.235,0.093-1.143,0-1.422,0.487c-0.279,0.489-3.802,0.678-4.495,1.022
		c-0.507,0.253-1.729,0.122-2.401,0.188c-0.287-0.32-0.357-0.609-0.839-0.977c-0.439-0.335-1.753,0.005-1.729,0.679
		c0.022,0.673-0.854,1.276-0.832,2.489c0.024,1.211,0.163,6.057-0.023,6.477c-0.188,0.419-0.886,0.814-0.886,1.583
		c0,0.771-0.559,1.864-0.769,2.33c-0.211,0.466-0.235,3.193-0.235,3.193s0.095,0.838-0.559,0.908
		c-0.652,0.069-1.633-1.608-2.586-1.536c-0.957,0.066-4.079-2.891-4.703-3.388c-0.027-0.021-0.195-3.326,0.362-3.372
		c0.562-0.048,1.585-1.767,1.776-2.19c0.299-0.654,0.538-3.027,1.003-3.027s1.746,0.188,1.723-0.372
		c-0.023-0.559,0.041-0.656-0.794-1.119c-0.985-0.546-1.377-1.94-2-2.469c-0.356-0.299-1.28-0.34-1.68-0.325
		c-0.652,0.023-2.654,0.579-3.423,1c-0.771,0.421-4.173,1.166-4.359,0.604c-0.187-0.558-0.771-1.977-1.306-1.837
		c-0.532,0.14-0.974,0.908-1.931,0.908c-0.956,0-1.655-0.77-1.655-1.98c0-1.213-0.095-2.164,0.792-3.031
		c1.193-1.163,0.77-3.747,1.212-4.167c0.442-0.421,1.51-1.772,3.047-2.028c1.538-0.256,2.221-2.787,2.591-3.354
		c0.439-0.671,2.809-3.704,2.919-4.429c0,0,1.071-3.464,1.135-3.82c0.211-1.188,2.873-2.852,3.543-3.607
		c0.347-0.396,0.939-1.014,1.045-1.051C165.325,140.416,168.67,136.861,168.647,136.326z M127.45,181.563
		c0,0,0.248-1.785,1.312-1.585c1.063,0.197,1.313,1.04,1.139,1.882c-0.174,0.84-0.743,2.327-1.535,2.327s-1.188-1.784-1.139-2.031
		C127.277,181.909,127.45,181.563,127.45,181.563z"/>
</g>
</svg>
